<?xml version="1.0" encoding="UTF-8" standalone="no"?>
<svg width="29px" height="29px" viewBox="0 0 29 29" version="1.1" xmlns="http://www.w3.org/2000/svg" xmlns:xlink="http://www.w3.org/1999/xlink">
    <!-- Generator: Sketch 3.7.2 (28276) - http://www.bohemiancoding.com/sketch -->
    <title>Shape</title>
    <desc>Created with Sketch.</desc>
    <defs></defs>
    <g id="Page-4" stroke="none" stroke-width="1" fill="none" fill-rule="evenodd">
        <g id="build-it-together-05-02" transform="translate(-1026.000000, -20.000000)" stroke="#6DABE8" stroke-width="0.3" fill="#6DABE8">
            <path d="M1040.45065,21.0028254 C1035.8093,21.1123879 1031.33862,23.5720885 1028.84182,27.8825665 C1025.5161,33.630016 1026.84394,40.7773342 1031.6193,45.0153525 C1031.63152,45.0271381 1031.64374,45.0271381 1031.64374,45.0271381 C1032.09465,45.4287219 1032.58179,45.8062979 1033.09337,46.1594297 C1033.34916,46.3301028 1033.60495,46.4885538 1033.88519,46.6461318 C1034.67701,47.1092627 1035.50549,47.4746166 1036.34576,47.7544157 C1036.52822,47.8277484 1036.72334,47.8884225 1036.91846,47.9368744 C1037.30825,48.0468735 1037.69805,48.1559995 1038.08785,48.2293322 C1038.48987,48.3026649 1038.89189,48.3633389 1039.28169,48.4117909 C1039.42792,48.4244495 1039.57415,48.4484572 1039.72038,48.4484572 C1039.84216,48.4602429 1039.96395,48.473338 1040.08573,48.473338 C1040.19529,48.4851236 1040.28085,48.4851236 1040.37819,48.4851236 L1040.48775,48.4851236 C1040.90199,48.4969092 1041.30401,48.4851236 1041.71782,48.4484572 C1041.91294,48.4366716 1042.11984,48.4244495 1042.31496,48.4000053 C1042.4363,48.3882197 1042.5463,48.3751246 1042.66809,48.3633389 C1042.78987,48.3393312 1042.91209,48.3266726 1043.02166,48.3026649 C1043.46034,48.2293322 1043.88637,48.1442139 1044.31284,48.0219927 C1044.44728,47.9853264 1044.58085,47.9495331 1044.72708,47.9002081 C1044.79997,47.8884225 1044.87331,47.8517561 1044.9462,47.8277484 C1045.15354,47.7662013 1045.36045,47.6937417 1045.56779,47.620409 C1045.67735,47.571957 1045.79913,47.5352907 1045.90869,47.4864022 C1045.98159,47.4497359 1046.06671,47.4130695 1046.15226,47.3764032 C1047.02964,48.0704447 1048.13792,48.4964727 1049.34398,48.4964727 C1052.18257,48.4964727 1054.49691,46.1834375 1054.49691,43.3461608 C1054.49691,42.1405365 1054.08311,41.0444747 1053.38863,40.1679744 C1056.10499,33.8482681 1053.72954,26.3600402 1047.639,22.8409441 C1045.37179,21.5384159 1042.88721,20.9539369 1040.45065,21.0028254 L1040.45065,21.0028254 L1040.45065,21.0028254 Z M1040.47509,21.6968669 C1042.78944,21.6357563 1045.14045,22.2080132 1047.28456,23.4380817 C1052.99752,26.7380527 1055.26341,33.6658093 1052.87617,39.6083762 C1051.95035,38.7318759 1050.70762,38.1836268 1049.34311,38.1836268 C1048.6124,38.1836268 1047.93058,38.3420778 1047.29678,38.6218769 C1045.38402,37.465141 1043.15479,36.8077659 1040.75533,36.8077659 C1036.35755,36.8077659 1032.48401,39.0361193 1030.18189,42.4207721 C1027.24596,38.3787441 1026.78327,32.8259755 1029.43852,28.2234762 C1031.81398,24.1199011 1036.06553,21.7942073 1040.47509,21.6968669 L1040.47509,21.6968669 L1040.47509,21.6968669 Z M1040.75533,23.2185202 C1037.72206,23.2185202 1035.8093,25.1788601 1035.8093,27.565228 C1035.8093,29.1968804 1036.16287,31.182101 1036.95469,32.8010947 C1037.73428,34.432747 1038.9888,35.7357118 1040.74311,35.7972589 L1040.76755,35.7972589 C1042.52142,35.7357118 1043.77637,34.4331836 1044.55597,32.8010947 C1045.34735,31.182101 1045.71314,29.1973169 1045.71314,27.565228 C1045.71314,25.1792966 1043.78816,23.2185202 1040.75533,23.2185202 L1040.75533,23.2185202 L1040.75533,23.2185202 Z M1040.75533,23.9003396 C1043.50836,23.9003396 1045.0191,25.5319919 1045.0191,27.565228 C1045.0191,29.0995399 1044.66553,31.0114279 1043.93482,32.5090735 C1043.21634,33.9944969 1042.18051,35.0543289 1040.76799,35.1027808 L1040.74354,35.1027808 C1039.33058,35.0543289 1038.29519,33.9944969 1037.57627,32.5090735 C1036.85778,31.0114279 1036.49199,29.0995399 1036.49199,27.565228 C1036.49156,25.5324284 1038.01408,23.9003396 1040.75533,23.9003396 L1040.75533,23.9003396 L1040.75533,23.9003396 Z M1040.75533,37.4895853 C1042.87455,37.4895853 1044.84843,38.04962 1046.56607,38.999453 C1045.14045,39.9252782 1044.19061,41.5202641 1044.19061,43.3465973 C1044.19061,44.7097996 1044.72708,45.9520903 1045.60358,46.8779155 C1045.55513,46.8897011 1045.51846,46.9145818 1045.46957,46.9263674 C1045.42112,46.9503752 1045.38445,46.9630338 1045.33556,46.9870415 C1045.26223,47.0119222 1045.18934,47.0354935 1045.116,47.0603742 C1044.99466,47.0970405 1044.87243,47.1454925 1044.73843,47.1821588 C1044.67775,47.2061666 1044.61708,47.2188252 1044.55597,47.2428329 C1044.42153,47.2794993 1044.2753,47.3161656 1044.14173,47.3646176 C1043.94705,47.4130695 1043.75193,47.461958 1043.54503,47.5104099 L1043.5328,47.5104099 C1043.49657,47.5104099 1043.45991,47.5230685 1043.43546,47.5352907 C1043.26479,47.571957 1043.09455,47.5959647 1042.91166,47.6326311 L1042.87499,47.6326311 C1042.64364,47.681083 1042.41186,47.6941782 1042.18051,47.7177494 C1042.03428,47.7426301 1041.88806,47.7544157 1041.73004,47.7662013 C1041.54715,47.77886 1041.35247,47.7910821 1041.16957,47.8028677 L1040.59731,47.8028677 C1040.4022,47.7910821 1040.21974,47.7910821 1040.02462,47.77886 C1039.84216,47.7662013 1039.65927,47.7539792 1039.46415,47.730408 C1039.28169,47.7177494 1039.08657,47.6937417 1038.90368,47.6688609 C1035.72418,47.2057301 1032.76425,45.5749507 1030.64458,42.9808069 C1032.80091,39.6817089 1036.516,37.4895853 1040.75533,37.4895853 L1040.75533,37.4895853 L1040.75533,37.4895853 Z M1049.34311,38.8776683 C1051.8159,38.8776683 1053.82644,40.8751111 1053.82644,43.3465973 C1053.82644,45.8180835 1051.81634,47.8155263 1049.34311,47.8155263 C1046.86988,47.8155263 1044.88466,45.8180835 1044.88466,43.3465973 C1044.88466,40.8751111 1046.87031,38.8776683 1049.34311,38.8776683 L1049.34311,38.8776683 L1049.34311,38.8776683 Z M1049.26251,41.0855648 C1048.82846,41.1032875 1048.39472,41.2767828 1048.03032,41.6495801 C1047.92616,41.7363277 1047.92616,41.9185289 1048.03032,42.0139824 C1048.12608,42.1094359 1048.29927,42.0917133 1048.38632,41.9878648 C1048.80296,41.5541265 1049.33215,41.4934965 1049.75719,41.6318574 C1050.18222,41.7708402 1050.45117,42.0917133 1050.42505,42.4558047 C1050.39054,42.8024844 1050.31249,43.0891558 1049.71366,43.3490879 C1049.47953,43.4535582 1049.29702,43.5228941 1049.14094,43.6702719 C1048.99325,43.8086328 1048.93262,44.0169515 1048.93262,44.2513879 C1048.93262,44.3813539 1049.05419,44.4935973 1049.18446,44.4935973 C1049.31474,44.4935973 1049.4273,44.3813539 1049.4273,44.2513879 C1049.4273,44.0775816 1049.436,44.0691867 1049.47953,44.0169515 C1049.53146,43.9731113 1049.67013,43.9040863 1049.90456,43.8002379 C1050.64207,43.4790539 1050.8762,42.9414672 1050.91102,42.4903172 C1050.96295,41.8575879 1050.49439,41.3542027 1049.90456,41.1632957 C1049.76589,41.1200774 1049.60079,41.0939598 1049.44471,41.084943 C1049.38408,41.0771699 1049.32314,41.0771699 1049.26251,41.0855648 L1049.26251,41.0855648 L1049.26251,41.0855648 Z M1049.1809,45.0077256 C1048.98129,45.0077256 1048.82521,45.1815318 1048.82521,45.3721279 C1048.82521,45.5720517 1048.98129,45.7365303 1049.1809,45.7365303 C1049.37181,45.7365303 1049.54561,45.5720517 1049.54561,45.3721279 C1049.5453,45.1812209 1049.37181,45.0077256 1049.1809,45.0077256 L1049.1809,45.0077256 L1049.1809,45.0077256 Z" id="Shape"></path>
        </g>
    </g>
</svg>