<?xml version="1.0" encoding="UTF-8" standalone="no"?>
<svg width="29px" height="29px" viewBox="0 0 29 29" version="1.1" xmlns="http://www.w3.org/2000/svg" xmlns:xlink="http://www.w3.org/1999/xlink">
    <!-- Generator: Sketch 3.7.2 (28276) - http://www.bohemiancoding.com/sketch -->
    <title>Shape Copy</title>
    <desc>Created with Sketch.</desc>
    <defs></defs>
    <g id="Page-4" stroke="none" stroke-width="1" fill="none" fill-rule="evenodd">
        <g id="build-it-together-05-02" transform="translate(-1081.000000, -20.000000)" stroke="#0099FF" stroke-width="0.3" fill="#0099FF">
            <path d="M1095.45065,21.0028254 C1090.8093,21.1123879 1086.33862,23.5720885 1083.84182,27.8825665 C1080.5161,33.630016 1081.84394,40.7773342 1086.6193,45.0153525 C1086.63152,45.0271381 1086.64374,45.0271381 1086.64374,45.0271381 C1087.09465,45.4287219 1087.58179,45.8062979 1088.09337,46.1594297 C1088.34916,46.3301028 1088.60495,46.4885538 1088.88519,46.6461318 C1089.67701,47.1092627 1090.50549,47.4746166 1091.34576,47.7544157 C1091.52822,47.8277484 1091.72334,47.8884225 1091.91846,47.9368744 C1092.30825,48.0468735 1092.69805,48.1559995 1093.08785,48.2293322 C1093.48987,48.3026649 1093.89189,48.3633389 1094.28169,48.4117909 C1094.42792,48.4244495 1094.57415,48.4484572 1094.72038,48.4484572 C1094.84216,48.4602429 1094.96395,48.473338 1095.08573,48.473338 C1095.19529,48.4851236 1095.28085,48.4851236 1095.37819,48.4851236 L1095.48775,48.4851236 C1095.90199,48.4969092 1096.30401,48.4851236 1096.71782,48.4484572 C1096.91294,48.4366716 1097.11984,48.4244495 1097.31496,48.4000053 C1097.4363,48.3882197 1097.5463,48.3751246 1097.66809,48.3633389 C1097.78987,48.3393312 1097.91209,48.3266726 1098.02166,48.3026649 C1098.46034,48.2293322 1098.88637,48.1442139 1099.31284,48.0219927 C1099.44728,47.9853264 1099.58085,47.9495331 1099.72708,47.9002081 C1099.79997,47.8884225 1099.87331,47.8517561 1099.9462,47.8277484 C1100.15354,47.7662013 1100.36045,47.6937417 1100.56779,47.620409 C1100.67735,47.571957 1100.79913,47.5352907 1100.90869,47.4864022 C1100.98159,47.4497359 1101.06671,47.4130695 1101.15226,47.3764032 C1102.02964,48.0704447 1103.13792,48.4964727 1104.34398,48.4964727 C1107.18257,48.4964727 1109.49691,46.1834375 1109.49691,43.3461608 C1109.49691,42.1405365 1109.08311,41.0444747 1108.38863,40.1679744 C1111.10499,33.8482681 1108.72954,26.3600402 1102.639,22.8409441 C1100.37179,21.5384159 1097.88721,20.9539369 1095.45065,21.0028254 L1095.45065,21.0028254 L1095.45065,21.0028254 Z M1095.47509,21.6968669 C1097.78944,21.6357563 1100.14045,22.2080132 1102.28456,23.4380817 C1107.99752,26.7380527 1110.26341,33.6658093 1107.87617,39.6083762 C1106.95035,38.7318759 1105.70762,38.1836268 1104.34311,38.1836268 C1103.6124,38.1836268 1102.93058,38.3420778 1102.29678,38.6218769 C1100.38402,37.465141 1098.15479,36.8077659 1095.75533,36.8077659 C1091.35755,36.8077659 1087.48401,39.0361193 1085.18189,42.4207721 C1082.24596,38.3787441 1081.78327,32.8259755 1084.43852,28.2234762 C1086.81398,24.1199011 1091.06553,21.7942073 1095.47509,21.6968669 L1095.47509,21.6968669 L1095.47509,21.6968669 Z M1095.75533,23.2185202 C1092.72206,23.2185202 1090.8093,25.1788601 1090.8093,27.565228 C1090.8093,29.1968804 1091.16287,31.182101 1091.95469,32.8010947 C1092.73428,34.432747 1093.9888,35.7357118 1095.74311,35.7972589 L1095.76755,35.7972589 C1097.52142,35.7357118 1098.77637,34.4331836 1099.55597,32.8010947 C1100.34735,31.182101 1100.71314,29.1973169 1100.71314,27.565228 C1100.71314,25.1792966 1098.78816,23.2185202 1095.75533,23.2185202 L1095.75533,23.2185202 L1095.75533,23.2185202 Z M1095.75533,23.9003396 C1098.50836,23.9003396 1100.0191,25.5319919 1100.0191,27.565228 C1100.0191,29.0995399 1099.66553,31.0114279 1098.93482,32.5090735 C1098.21634,33.9944969 1097.18051,35.0543289 1095.76799,35.1027808 L1095.74354,35.1027808 C1094.33058,35.0543289 1093.29519,33.9944969 1092.57627,32.5090735 C1091.85778,31.0114279 1091.49199,29.0995399 1091.49199,27.565228 C1091.49156,25.5324284 1093.01408,23.9003396 1095.75533,23.9003396 L1095.75533,23.9003396 L1095.75533,23.9003396 Z M1095.75533,37.4895853 C1097.87455,37.4895853 1099.84843,38.04962 1101.56607,38.999453 C1100.14045,39.9252782 1099.19061,41.5202641 1099.19061,43.3465973 C1099.19061,44.7097996 1099.72708,45.9520903 1100.60358,46.8779155 C1100.55513,46.8897011 1100.51846,46.9145818 1100.46957,46.9263674 C1100.42112,46.9503752 1100.38445,46.9630338 1100.33556,46.9870415 C1100.26223,47.0119222 1100.18934,47.0354935 1100.116,47.0603742 C1099.99466,47.0970405 1099.87243,47.1454925 1099.73843,47.1821588 C1099.67775,47.2061666 1099.61708,47.2188252 1099.55597,47.2428329 C1099.42153,47.2794993 1099.2753,47.3161656 1099.14173,47.3646176 C1098.94705,47.4130695 1098.75193,47.461958 1098.54503,47.5104099 L1098.5328,47.5104099 C1098.49657,47.5104099 1098.45991,47.5230685 1098.43546,47.5352907 C1098.26479,47.571957 1098.09455,47.5959647 1097.91166,47.6326311 L1097.87499,47.6326311 C1097.64364,47.681083 1097.41186,47.6941782 1097.18051,47.7177494 C1097.03428,47.7426301 1096.88806,47.7544157 1096.73004,47.7662013 C1096.54715,47.77886 1096.35247,47.7910821 1096.16957,47.8028677 L1095.59731,47.8028677 C1095.4022,47.7910821 1095.21974,47.7910821 1095.02462,47.77886 C1094.84216,47.7662013 1094.65927,47.7539792 1094.46415,47.730408 C1094.28169,47.7177494 1094.08657,47.6937417 1093.90368,47.6688609 C1090.72418,47.2057301 1087.76425,45.5749507 1085.64458,42.9808069 C1087.80091,39.6817089 1091.516,37.4895853 1095.75533,37.4895853 L1095.75533,37.4895853 L1095.75533,37.4895853 Z M1104.34311,38.8776683 C1106.8159,38.8776683 1108.82644,40.8751111 1108.82644,43.3465973 C1108.82644,45.8180835 1106.81634,47.8155263 1104.34311,47.8155263 C1101.86988,47.8155263 1099.88466,45.8180835 1099.88466,43.3465973 C1099.88466,40.8751111 1101.87031,38.8776683 1104.34311,38.8776683 L1104.34311,38.8776683 L1104.34311,38.8776683 Z M1104.26251,41.0855648 C1103.82846,41.1032875 1103.39472,41.2767828 1103.03032,41.6495801 C1102.92616,41.7363277 1102.92616,41.9185289 1103.03032,42.0139824 C1103.12608,42.1094359 1103.29927,42.0917133 1103.38632,41.9878648 C1103.80296,41.5541265 1104.33215,41.4934965 1104.75719,41.6318574 C1105.18222,41.7708402 1105.45117,42.0917133 1105.42505,42.4558047 C1105.39054,42.8024844 1105.31249,43.0891558 1104.71366,43.3490879 C1104.47953,43.4535582 1104.29702,43.5228941 1104.14094,43.6702719 C1103.99325,43.8086328 1103.93262,44.0169515 1103.93262,44.2513879 C1103.93262,44.3813539 1104.05419,44.4935973 1104.18446,44.4935973 C1104.31474,44.4935973 1104.4273,44.3813539 1104.4273,44.2513879 C1104.4273,44.0775816 1104.436,44.0691867 1104.47953,44.0169515 C1104.53146,43.9731113 1104.67013,43.9040863 1104.90456,43.8002379 C1105.64207,43.4790539 1105.8762,42.9414672 1105.91102,42.4903172 C1105.96295,41.8575879 1105.49439,41.3542027 1104.90456,41.1632957 C1104.76589,41.1200774 1104.60079,41.0939598 1104.44471,41.084943 C1104.38408,41.0771699 1104.32314,41.0771699 1104.26251,41.0855648 L1104.26251,41.0855648 L1104.26251,41.0855648 Z M1104.1809,45.0077256 C1103.98129,45.0077256 1103.82521,45.1815318 1103.82521,45.3721279 C1103.82521,45.5720517 1103.98129,45.7365303 1104.1809,45.7365303 C1104.37181,45.7365303 1104.54561,45.5720517 1104.54561,45.3721279 C1104.5453,45.1812209 1104.37181,45.0077256 1104.1809,45.0077256 L1104.1809,45.0077256 L1104.1809,45.0077256 Z" id="Shape-Copy"></path>
        </g>
    </g>
</svg>