<?xml version="1.0" encoding="UTF-8" standalone="no"?>
<svg width="145px" height="45px" viewBox="0 0 145 45" version="1.1" xmlns="http://www.w3.org/2000/svg" xmlns:xlink="http://www.w3.org/1999/xlink">
    <!-- Generator: Sketch 3.7.2 (28276) - http://www.bohemiancoding.com/sketch -->
    <title>Group 6</title>
    <desc>Created with Sketch.</desc>
    <defs>
        <polygon id="path-1" points="32.17 35.9998 32.17 0.8008 -0.0001 0.8008 -0.0001 35.9998 32.17 36 2.24767308e-15 35.9998"></polygon>
        <polygon id="path-3" points="32.286 35.9998 32.286 0.8008 0.0001 0.8008 0.0001 35.9998"></polygon>
        <polygon id="path-5" points="18.1917123 23.0765538 18.1917123 0.496615385 0.000184931507 0.496615385 0.000184931507 23.0765538 18.1917123 23.0765538"></polygon>
    </defs>
    <g id="Page-4" stroke="none" stroke-width="1" fill="none" fill-rule="evenodd">
        <g id="build-it-together-05-01" transform="translate(-122.000000, -29.000000)">
            <g id="Group-6" transform="translate(122.000000, 30.000000)">
                <g id="Group" transform="translate(18.000000, 3.000000)">
                    <g id="Page-1" transform="translate(76.000000, 0.000000)">
                        <path d="M8.5948,9.5303 C8.5948,6.6323 11.0168,4.5293 14.3548,4.5293 C17.7008,4.5293 20.1298,6.6323 20.1298,9.5303 C20.1298,11.7313 19.6008,14.1263 18.7138,15.9413 C17.9698,17.4983 16.6098,19.3703 14.3568,19.4493 C12.0988,19.3703 10.7398,17.4983 9.9938,15.9373 C9.1178,14.1473 8.5948,11.7523 8.5948,9.5303 M14.3878,20.4483 C16.5398,20.3733 18.3968,18.9263 19.6138,16.3763 C20.5628,14.4353 21.1298,11.8763 21.1298,9.5303 C21.1298,6.0523 18.2798,3.5293 14.3548,3.5293 C10.4378,3.5293 7.5948,6.0523 7.5948,9.5303 C7.5948,11.8973 8.1558,14.4563 9.0938,16.3723 C10.3128,18.9263 12.1698,20.3733 14.3878,20.4483" id="Fill-1" fill="#979797"></path>
                        <g id="Group-5" transform="translate(0.000000, 0.199700)">
                            <mask id="mask-2" fill="white">
                                <use xlink:href="#path-1"></use>
                            </mask>
                            <g id="Clip-4"></g>
                            <path d="M14.5709,34.8008 C9.7439,34.8008 5.4119,32.6918 2.4079,29.3628 C4.8869,24.9578 9.4989,22.2378 14.5799,22.2378 C19.6729,22.2378 24.2679,24.9468 26.7459,29.3498 C23.7419,32.6868 19.4039,34.8008 14.5709,34.8008 M14.5709,0.8008 C8.5169,0.8008 3.1689,3.8738 -0.0001,8.5408 C0.2179,8.9618 0.4279,9.3878 0.6189,9.8248 C3.5089,5.1398 8.6739,2.0008 14.5709,2.0008 C23.6139,2.0008 30.9709,9.3578 30.9709,18.4008 C30.9709,22.1508 29.6919,25.6008 27.5649,28.3668 C24.8259,23.8188 19.9589,21.0388 14.5799,21.0388 C9.2149,21.0388 4.3259,23.8258 1.5849,28.3778 C1.2379,27.9278 0.9229,27.4528 0.6229,26.9678 C0.4309,27.4068 0.2199,27.8358 -0.0001,28.2598 C3.1679,32.9268 8.5169,35.9998 14.5709,35.9998 C24.2759,35.9998 32.1709,28.1058 32.1709,18.4008 C32.1709,8.6958 24.2759,0.8008 14.5709,0.8008" id="Fill-3" fill="#979797" mask="url(#mask-2)"></path>
                        </g>
                    </g>
                    <g id="Page-1">
                        <path d="M23.1587,9.5303 C23.1587,11.7313 22.6307,14.1263 21.7427,15.9413 C20.9997,17.4983 19.6387,19.3703 17.3867,19.4493 C15.1287,19.3703 13.7687,17.4983 13.0227,15.9373 C12.1467,14.1473 11.6237,11.7523 11.6237,9.5303 C11.6237,6.6323 14.0467,4.5293 17.3837,4.5293 C20.7297,4.5293 23.1587,6.6323 23.1587,9.5303 M10.6237,9.5303 C10.6237,11.8973 11.1847,14.4563 12.1227,16.3723 C13.3427,18.9263 15.1997,20.3733 17.4167,20.4483 C19.5687,20.3733 21.4267,18.9263 22.6427,16.3763 C23.5927,14.4353 24.1587,11.8763 24.1587,9.5303 C24.1587,6.0523 21.3087,3.5293 17.3837,3.5293 C13.4667,3.5293 10.6237,6.0523 10.6237,9.5303" id="Fill-1" fill="#979797"></path>
                        <g id="Group-5" transform="translate(0.000000, 0.199700)">
                            <mask id="mask-4" fill="white">
                                <use xlink:href="#path-3"></use>
                            </mask>
                            <g id="Clip-4"></g>
                            <path d="M17.6001,34.8008 C12.7731,34.8008 8.4411,32.6918 5.4371,29.3628 C7.9161,24.9578 12.5281,22.2378 17.6091,22.2378 C22.7021,22.2378 27.2971,24.9468 29.7751,29.3498 C26.7711,32.6868 22.4331,34.8008 17.6001,34.8008 M31.6611,26.7778 C31.3321,27.3268 30.9831,27.8618 30.5941,28.3668 C27.8551,23.8188 22.9881,21.0388 17.6091,21.0388 C12.2441,21.0388 7.3551,23.8258 4.6141,28.3778 C2.4831,25.6098 1.2001,22.1558 1.2001,18.4008 C1.2001,9.3578 8.5571,2.0008 17.6001,2.0008 C23.5751,2.0008 28.7991,5.2228 31.6661,10.0118 C31.8531,9.5718 32.0721,9.1498 32.2861,8.7248 C29.1341,3.9568 23.7321,0.8008 17.6001,0.8008 C7.8951,0.8008 0.0001,8.6958 0.0001,18.4008 C0.0001,28.1058 7.8951,35.9998 17.6001,35.9998 C23.7321,35.9998 29.1351,32.8438 32.2861,28.0758 C32.0701,27.6478 31.8491,27.2218 31.6611,26.7778" id="Fill-3" fill="#979797" mask="url(#mask-4)"></path>
                        </g>
                    </g>
                </g>
                <g id="Group-4" opacity="0.461287313" transform="translate(0.000000, 9.000000)">
                    <g id="Page-1" transform="translate(126.000000, 0.000000)">
                        <g id="Group-3" transform="translate(0.000000, 0.426831)">
                            <mask id="mask-6" fill="white">
                                <use xlink:href="#path-5"></use>
                            </mask>
                            <g id="Clip-2"></g>
                            <path d="M6.88241096,0.496246154 C4.29152055,0.496246154 1.90867808,1.37963077 0.000184931507,2.84824615 C0.117616438,3.08086154 0.231349315,3.31624615 0.340458904,3.55347692 C2.13984247,2.12547692 4.41080137,1.26609231 6.88241096,1.26609231 C12.6938836,1.26609231 17.4216575,5.98578462 17.4216575,11.7864 C17.4216575,14.1928615 16.5987123,16.4064 15.2320685,18.1805538 C13.4724452,15.2627077 10.3443288,13.4793231 6.8879589,13.4793231 C5.0830274,13.4793231 3.36778767,13.9796308 1.88463699,14.8657846 C1.83008219,15.2137846 1.78569863,15.5645538 1.71357534,15.9060923 C3.19857534,14.8547077 4.98778767,14.2491692 6.8879589,14.2491692 C10.1612466,14.2491692 13.1136781,15.9864 14.7059384,18.8110154 C12.7752534,20.9516308 9.98833562,22.3076308 6.88241096,22.3076308 C4.40895205,22.3076308 2.14539041,21.4371692 0.347856164,20.0054769 C0.23689726,20.2482462 0.120390411,20.4882462 0.000184931507,20.7254769 C1.90867808,22.1931692 4.29152055,23.0765538 6.88241096,23.0765538 C13.119226,23.0765538 18.1918973,18.0125538 18.1918973,11.7864 C18.1918973,5.56116923 13.119226,0.496246154 6.88241096,0.496246154" id="Fill-1" fill="#979797" mask="url(#mask-6)"></path>
                        </g>
                        <path d="M3.04221575,6.39526154 C3.04221575,4.53618462 4.59841438,3.18664615 6.74361986,3.18664615 C8.89344863,3.18664615 10.4542705,4.53618462 10.4542705,6.39526154 C10.4542705,7.80756923 10.1149212,9.34356923 9.54440753,10.5084923 C9.06728425,11.5063385 8.19255822,12.7081846 6.74546918,12.7580308 C5.29375685,12.7081846 4.41995548,11.5063385 3.94098288,10.5048 C3.37786644,9.35649231 3.04221575,7.82049231 3.04221575,6.39526154 M6.76488699,13.3995692 C8.14725,13.3515692 9.34098288,12.4229538 10.1232432,10.7872615 C10.7335171,9.54203077 11.0969075,7.9008 11.0969075,6.39526154 C11.0969075,4.16418462 9.26608562,2.54510769 6.74361986,2.54510769 C4.22670205,2.54510769 2.39957877,4.16418462 2.39957877,6.39526154 C2.39957877,7.91372308 2.76019521,9.55495385 3.36214726,10.7844923 C4.14625685,12.4229538 5.33998973,13.3515692 6.76488699,13.3995692" id="Fill-4" fill="#979797"></path>
                    </g>
                    <g id="Page-1" fill="#979797">
                        <path d="M14.8818082,5.47218462 C14.8818082,6.88449231 14.5424589,8.42049231 13.9719452,9.58449231 C13.4938973,10.5832615 12.6200959,11.7851077 11.1720822,11.8349538 C9.72129452,11.7851077 8.84749315,10.5832615 8.36852055,9.58172308 C7.80540411,8.43341538 7.46975342,6.89741538 7.46975342,5.47218462 C7.46975342,3.61310769 9.02595205,2.26356923 11.1711575,2.26356923 C13.3209863,2.26356923 14.8818082,3.61310769 14.8818082,5.47218462 M6.82711644,5.47218462 C6.82711644,6.99064615 7.18773288,8.63187692 7.78968493,9.86141538 C8.57379452,11.4998769 9.7675274,12.4284923 11.1924247,12.4764923 C12.5747877,12.4284923 13.7685205,11.4989538 14.5507808,9.86418462 C15.1601301,8.61895385 15.5244452,6.9768 15.5244452,5.47218462 C15.5244452,3.24110769 13.6936233,1.62203077 11.1711575,1.62203077 C8.65423973,1.62203077 6.82711644,3.24110769 6.82711644,5.47218462" id="Fill-1"></path>
                        <path d="M17.720137,19.6111385 C15.9429452,20.9837538 13.7256164,21.8117538 11.3094863,21.8117538 C8.20818493,21.8117538 5.4240411,20.4585231 3.49335616,18.3225231 C5.0865411,15.4969846 8.05099315,13.7523692 11.3150342,13.7523692 C13.127363,13.7523692 14.8296575,14.3006769 16.2693493,15.2551385 C16.2009247,14.9200615 16.1639384,14.5748308 16.1130822,14.2342154 C14.6817123,13.4274462 13.0395205,12.9834462 11.3150342,12.9834462 C7.86791096,12.9834462 4.72592466,14.7714462 2.96537671,17.6911385 C1.59503425,15.9151385 0.771164384,13.6997538 0.771164384,11.2905231 C0.771164384,5.48898462 5.49893836,0.770215385 11.3094863,0.770215385 C13.7246918,0.770215385 15.9447945,1.5936 17.7238356,2.9616 C17.8338699,2.72436923 17.9448288,2.48806154 18.0641096,2.25636923 C16.1768836,0.845907692 13.8430479,0.000369230769 11.3094863,0.000369230769 C5.07359589,0.000369230769 0,5.06529231 0,11.2905231 C0,17.5166769 5.07359589,22.5806769 11.3094863,22.5806769 C13.8430479,22.5806769 16.1768836,21.7342154 18.0641096,20.3246769 C17.9439041,20.0902154 17.8310959,19.8511385 17.720137,19.6111385" id="Fill-3"></path>
                    </g>
                </g>
                <path d="M72.0295367,0.00441733135 C64.772979,0.175713859 57.7832617,4.02135504 53.8796117,10.7606109 C48.6799773,19.7465128 50.7560093,30.921052 58.2220811,37.5470201 C58.2411898,37.5654464 58.2602986,37.5654464 58.2602986,37.5654464 C58.965276,38.1933062 59.7268972,38.7836309 60.5267359,39.335738 C60.9266553,39.6025785 61.3265747,39.8503101 61.7647116,40.0966768 C63.0026874,40.8207629 64.2979894,41.3919788 65.6117177,41.8294333 C65.8969845,41.944086 66.2020424,42.0389474 66.5071004,42.1147 C67.1165338,42.286679 67.7259673,42.4572931 68.3354008,42.5719458 C68.963943,42.6865984 69.5924853,42.7814598 70.2019187,42.8572125 C70.4305416,42.8770037 70.6591644,42.9145388 70.8877873,42.9145388 C71.0781926,42.9329651 71.2685979,42.9534388 71.4590032,42.9534388 C71.6302997,42.9718651 71.7640612,42.9718651 71.9162489,42.9718651 L72.0875454,42.9718651 C72.7351965,42.9902915 73.3637387,42.9718651 74.0107073,42.9145388 C74.3157652,42.8961125 74.6392495,42.8770037 74.9443075,42.8387862 C75.1340303,42.8203599 75.3060093,42.7998862 75.4964146,42.7814598 C75.6868199,42.7439247 75.8779077,42.7241335 76.0492042,42.6865984 C76.7350728,42.5719458 77.4011501,42.4388668 78.0679099,42.247779 C78.2781064,42.1904527 78.486938,42.1344913 78.7155609,42.0573737 C78.8295311,42.0389474 78.9441838,41.9816211 79.058154,41.944086 C79.3823207,41.8478596 79.705805,41.7345719 80.0299717,41.6199192 C80.2012682,41.5441666 80.3916735,41.4868403 80.5629701,41.4104052 C80.6769403,41.3530788 80.8100192,41.2957525 80.9437807,41.2384262 C82.3155178,42.3235317 84.0482743,42.989609 85.933901,42.989609 C90.3719143,42.989609 93.9902975,39.3732731 93.9902975,34.9373073 C93.9902975,33.052363 93.3433289,31.3387153 92.257541,29.9683431 C96.5044665,20.0877409 92.7905394,8.38020334 83.2682268,2.87824075 C79.7235488,0.841791195 75.8390076,-0.0720177728 72.0295367,0.00441733135 L72.0295367,0.00441733135 L72.0295367,0.00441733135 Z M72.0677542,1.08952283 C75.6861374,0.993978947 79.361847,1.88867914 82.7140723,3.81184096 C91.6460602,8.97121048 95.1886907,19.8024742 91.4563373,29.0934341 C90.0088475,27.7230619 88.0658945,26.8658968 85.9325361,26.8658968 C84.7901043,26.8658968 83.7241076,27.1136284 82.7331811,27.5510829 C79.7426576,25.7425737 76.2573534,24.7147946 72.5058911,24.7147946 C65.6301441,24.7147946 59.574027,28.1987339 55.9747525,33.4905 C51.3845515,27.1709547 50.6611479,18.4894283 54.8125295,11.2936092 C58.5264566,4.87783768 65.1735808,1.24171058 72.0677542,1.08952283 L72.0677542,1.08952283 L72.0677542,1.08952283 Z M72.5058911,3.46856544 C67.7635024,3.46856544 64.772979,6.53347663 64.772979,10.2644651 C64.772979,12.8154867 65.3257686,15.9192979 66.5637443,18.4505283 C67.7826112,21.0015499 69.7439906,23.0386819 72.4867824,23.1349083 L72.5249999,23.1349083 C75.2671093,23.0386819 77.2291711,21.0022324 78.448038,18.4505283 C79.6853313,15.9192979 80.2572296,12.8161692 80.2572296,10.2644651 C80.2572296,6.53415908 77.2475974,3.46856544 72.5058911,3.46856544 L72.5058911,3.46856544 L72.5058911,3.46856544 Z M72.5058911,4.53456216 C76.8101429,4.53456216 79.1721242,7.08558376 79.1721242,10.2644651 C79.1721242,12.663299 78.6193346,15.6524575 77.4769027,17.9939651 C76.3535797,20.3163638 74.7341109,21.9733677 72.5256824,22.0491203 L72.4874648,22.0491203 C70.2783538,21.9733677 68.6595675,20.3163638 67.535562,17.9939651 C66.412239,15.6524575 65.8403406,12.663299 65.8403406,10.2644651 C65.8396581,7.08626622 68.2200657,4.53456216 72.5058911,4.53456216 L72.5058911,4.53456216 L72.5058911,4.53456216 Z M72.5058911,25.7807913 C75.8192164,25.7807913 78.9052837,26.6563827 81.5907492,28.1414076 C79.361847,29.5888974 77.8768221,32.0825926 77.8768221,34.9379897 C77.8768221,37.0693007 78.7155609,39.0115713 80.0859331,40.4590611 C80.0101805,40.4774874 79.9528541,40.5163874 79.876419,40.5348137 C79.8006664,40.5723488 79.7433401,40.5921401 79.666905,40.6296752 C79.5522523,40.6685752 79.4382821,40.7054278 79.3236294,40.7443278 C79.1339066,40.8016542 78.9428188,40.8774068 78.7333048,40.9347331 C78.6384433,40.9722682 78.5435819,40.9920595 78.448038,41.0295946 C78.2378415,41.0869209 78.0092186,41.1442472 77.800387,41.2199999 C77.4960115,41.2957525 77.1909536,41.3721876 76.8674693,41.4479403 L76.8483605,41.4479403 C76.7917166,41.4479403 76.7343903,41.4677315 76.6961727,41.4868403 C76.4293323,41.5441666 76.1631744,41.5817017 75.8772252,41.639028 L75.8198989,41.639028 C75.458197,41.7147807 75.0958128,41.7352544 74.7341109,41.772107 C74.5054881,41.811007 74.2768652,41.8294333 74.029816,41.8478596 C73.7438668,41.8676509 73.4394913,41.8867596 73.1535422,41.905186 L72.258842,41.905186 C71.953784,41.8867596 71.6685173,41.8867596 71.3634593,41.8676509 C71.0781926,41.8478596 70.7922434,41.8287509 70.4871854,41.7918982 C70.2019187,41.772107 69.8968608,41.7345719 69.6109116,41.6956719 C64.6399,40.9715858 60.0121639,38.4219291 56.6981562,34.3660914 C60.0694902,29.2080868 65.8778757,25.7807913 72.5058911,25.7807913 L72.5058911,25.7807913 L72.5058911,25.7807913 Z M85.9325361,27.9510023 C89.798651,27.9510023 92.9420447,31.0739222 92.9420447,34.9379897 C92.9420447,38.8020572 89.7993335,41.9249772 85.9325361,41.9249772 C82.0657388,41.9249772 78.9619276,38.8020572 78.9619276,34.9379897 C78.9619276,31.0739222 82.0664213,27.9510023 85.9325361,27.9510023 L85.9325361,27.9510023 L85.9325361,27.9510023 Z M85.8065168,31.4029581 C85.1278986,31.4306667 84.4497666,31.7019195 83.8800384,32.2847728 C83.7171895,32.4203992 83.7171895,32.7052632 83.8800384,32.8545009 C84.0297622,33.0037386 84.3005289,32.9760299 84.4366414,32.8136671 C85.0880371,32.1355351 85.9154068,32.0407425 86.5799275,32.2570642 C87.2444483,32.4743581 87.6649388,32.9760299 87.624105,33.545272 C87.5701461,34.0872915 87.448131,34.5354906 86.5118713,34.9418837 C86.1458258,35.1052187 85.8604756,35.2136226 85.6164453,35.4440416 C85.3855402,35.6603633 85.2907475,35.9860611 85.2907475,36.3525927 C85.2907475,36.5557893 85.4808189,36.7312772 85.6845016,36.7312772 C85.8881843,36.7312772 86.0641583,36.5557893 86.0641583,36.3525927 C86.0641583,36.0808538 86.0777696,36.0677287 86.1458258,35.9860611 C86.2270072,35.9175188 86.443815,35.809601 86.8103466,35.6472382 C87.9634141,35.1450802 88.3294596,34.3045854 88.3839046,33.5992308 C88.465086,32.6099845 87.7325089,31.8229624 86.8103466,31.5244871 C86.5935388,31.456917 86.3354111,31.4160832 86.0913808,31.4019858 C85.9965882,31.3898329 85.9013094,31.3898329 85.8065168,31.4029581 L85.8065168,31.4029581 L85.8065168,31.4029581 Z M85.6789312,37.5350958 C85.3668446,37.5350958 85.1228143,37.8068347 85.1228143,38.1048239 C85.1228143,38.4173966 85.3668446,38.674552 85.6789312,38.674552 C85.9774065,38.674552 86.2491455,38.4173966 86.2491455,38.1048239 C86.2486593,37.8063486 85.9774065,37.5350958 85.6789312,37.5350958 L85.6789312,37.5350958 L85.6789312,37.5350958 Z" id="Shape" stroke="#FFFFFF" stroke-width="0.3" fill="#FFFFFF"></path>
            </g>
        </g>
    </g>
</svg>